<?xml version="1.0" standalone="no"?><!DOCTYPE svg PUBLIC "-//W3C//DTD SVG 1.1//EN" "http://www.w3.org/Graphics/SVG/1.1/DTD/svg11.dtd"><svg t="1743129313096" class="icon" viewBox="0 0 1024 1024" version="1.1" xmlns="http://www.w3.org/2000/svg" p-id="3430" xmlns:xlink="http://www.w3.org/1999/xlink" width="200" height="200"><path d="M0 0m256 0l512 0q256 0 256 256l0 512q0 256-256 256l-512 0q-256 0-256-256l0-512q0-256 256-256Z" fill="#6896FF" p-id="3431"></path><path d="M729.045333 775.893333l0.042667 0.042667q8.106667 4.864 17.578667 4.864 3.370667 0 6.656-0.64 3.285333-0.682667 6.4-1.962667t5.888-3.157333q2.816-1.877333 5.205333-4.266667 2.346667-2.346667 4.266667-5.12 1.834667-2.816 3.114666-5.930666 1.28-3.114667 1.962667-6.4 0.64-3.285333 0.64-6.656 0-4.437333-1.109333-8.704-1.152-4.266667-3.328-8.106667-2.133333-3.84-5.248-7.04-3.114667-3.157333-6.869334-5.418667-122.752-73.642667-310.186666 20.053334-4.266667 2.133333-7.765334 5.333333-3.498667 3.242667-5.973333 7.253333-2.56 4.053333-3.84 8.618667-1.28 4.608-1.28 9.344 0 3.370667 0.64 6.656 0.682667 3.285333 1.962667 6.4t3.157333 5.888q1.877333 2.816 4.266667 5.205333 2.346667 2.346667 5.12 4.266667 2.816 1.834667 5.930666 3.114667 3.114667 1.28 6.4 1.962666 3.285333 0.64 6.656 0.64 8.064 0 15.274667-3.584 153.856-76.928 244.48-22.613333zM471.722667 615.466667c-63.402667 7.125333-108.458667 38.954667-135.168 95.573333q-3.797333 7.978667-7.082667 16.64c-2.005333 5.248-3.84 10.709333-5.589333 16.384-4.266667 13.738667-16.554667 23.936-30.933334 23.936a30.848 30.848 0 0 1-30.165333-36.522667 2128.64 2128.64 0 0 1 8.362667-41.941333c37.973333-177.664 130.986667-450.005333 486.784-474.453333 25.6-1.706667 43.178667 24.192 32.981333 47.786666q-36.266667 84.053333-72.618667 116.778667l-12.074666 10.88a22.869333 22.869333 0 0 0 0.298666 34.133333 21.632 21.632 0 0 1 5.717334 25.045334c-35.669333 78.122667-124.416 152.704-240.512 165.76z m158.72-206.976q0.256 19.285333 7.296 35.498666-20.608 32.128-55.893334 57.856-52.650667 38.442667-117.76 45.781334-49.365333 5.546667-88.021333 25.088 25.301333-67.541333 58.410667-115.712 93.184-135.68 266.837333-166.4-15.104 26.112-28.714667 38.357333l-12.074666 10.837333q-30.592 27.562667-30.08 68.693334z" fill="#FFFFFF" p-id="3432"></path></svg>